<mxfile host="app.diagrams.net" modified="2021-11-30T09:11:11.873Z" agent="5.0 (Macintosh; Intel Mac OS X 10_15_7) AppleWebKit/537.36 (KHTML, like Gecko) Chrome/92.0.4515.131 Safari/537.36" etag="2hCp950yTltp8w4hjjP9" version="15.7.3" type="github">
  <diagram id="XLh6PeHuTJk1JMMVZsZq" name="Page-1">
    <mxGraphModel dx="946" dy="614" grid="0" gridSize="10" guides="1" tooltips="1" connect="1" arrows="1" fold="1" page="1" pageScale="1" pageWidth="827" pageHeight="1169" math="0" shadow="0">
      <root>
        <mxCell id="0" />
        <mxCell id="1" parent="0" />
        <mxCell id="B35P_RnnMUQNIVXsbhu0-6" value="" style="ellipse;whiteSpace=wrap;html=1;rotation=0;strokeColor=#F19C99;strokeWidth=2;" vertex="1" parent="1">
          <mxGeometry x="107" y="171" width="168" height="60" as="geometry" />
        </mxCell>
        <mxCell id="B35P_RnnMUQNIVXsbhu0-7" value="" style="ellipse;whiteSpace=wrap;html=1;rotation=0;strokeColor=#A9C4EB;strokeWidth=2;" vertex="1" parent="1">
          <mxGeometry x="107" y="87" width="168" height="60" as="geometry" />
        </mxCell>
        <mxCell id="B35P_RnnMUQNIVXsbhu0-8" value="" style="ellipse;whiteSpace=wrap;html=1;aspect=fixed;strokeColor=#F19C99;strokeWidth=2;fillColor=#F19C99;" vertex="1" parent="1">
          <mxGeometry x="144" y="188" width="10" height="10" as="geometry" />
        </mxCell>
        <mxCell id="B35P_RnnMUQNIVXsbhu0-9" value="" style="ellipse;whiteSpace=wrap;html=1;aspect=fixed;strokeColor=#F19C99;strokeWidth=2;fillColor=#F19C99;" vertex="1" parent="1">
          <mxGeometry x="193" y="176" width="10" height="10" as="geometry" />
        </mxCell>
        <mxCell id="B35P_RnnMUQNIVXsbhu0-10" value="" style="ellipse;whiteSpace=wrap;html=1;aspect=fixed;strokeColor=#F19C99;strokeWidth=2;fillColor=#F19C99;" vertex="1" parent="1">
          <mxGeometry x="227" y="195" width="10" height="10" as="geometry" />
        </mxCell>
        <mxCell id="B35P_RnnMUQNIVXsbhu0-11" value="" style="ellipse;whiteSpace=wrap;html=1;aspect=fixed;strokeColor=#F19C99;strokeWidth=2;fillColor=#F19C99;" vertex="1" parent="1">
          <mxGeometry x="176" y="200" width="10" height="10" as="geometry" />
        </mxCell>
        <mxCell id="B35P_RnnMUQNIVXsbhu0-12" value="" style="ellipse;whiteSpace=wrap;html=1;aspect=fixed;strokeColor=#F19C99;strokeWidth=2;fillColor=#F19C99;" vertex="1" parent="1">
          <mxGeometry x="202" y="210" width="10" height="10" as="geometry" />
        </mxCell>
        <mxCell id="B35P_RnnMUQNIVXsbhu0-13" value="" style="ellipse;whiteSpace=wrap;html=1;aspect=fixed;strokeColor=#F19C99;strokeWidth=2;fillColor=#F19C99;" vertex="1" parent="1">
          <mxGeometry x="150" y="210" width="10" height="10" as="geometry" />
        </mxCell>
        <mxCell id="B35P_RnnMUQNIVXsbhu0-14" value="" style="ellipse;whiteSpace=wrap;html=1;aspect=fixed;strokeColor=#A9C4EB;strokeWidth=2;fillColor=#A9C4EB;" vertex="1" parent="1">
          <mxGeometry x="131" y="104" width="10" height="10" as="geometry" />
        </mxCell>
        <mxCell id="B35P_RnnMUQNIVXsbhu0-15" value="" style="ellipse;whiteSpace=wrap;html=1;aspect=fixed;strokeColor=#A9C4EB;strokeWidth=2;fillColor=#A9C4EB;" vertex="1" parent="1">
          <mxGeometry x="193.5" y="95" width="10" height="10" as="geometry" />
        </mxCell>
        <mxCell id="B35P_RnnMUQNIVXsbhu0-16" value="" style="ellipse;whiteSpace=wrap;html=1;aspect=fixed;strokeColor=#A9C4EB;strokeWidth=2;fillColor=#A9C4EB;" vertex="1" parent="1">
          <mxGeometry x="243" y="110" width="10" height="10" as="geometry" />
        </mxCell>
        <mxCell id="B35P_RnnMUQNIVXsbhu0-17" value="" style="ellipse;whiteSpace=wrap;html=1;aspect=fixed;strokeColor=#A9C4EB;strokeWidth=2;fillColor=#A9C4EB;" vertex="1" parent="1">
          <mxGeometry x="173" y="108" width="10" height="10" as="geometry" />
        </mxCell>
        <mxCell id="B35P_RnnMUQNIVXsbhu0-18" value="" style="ellipse;whiteSpace=wrap;html=1;aspect=fixed;strokeColor=#A9C4EB;strokeWidth=2;fillColor=#A9C4EB;" vertex="1" parent="1">
          <mxGeometry x="207" y="124" width="10" height="10" as="geometry" />
        </mxCell>
        <mxCell id="B35P_RnnMUQNIVXsbhu0-19" value="" style="ellipse;whiteSpace=wrap;html=1;aspect=fixed;strokeColor=#A9C4EB;strokeWidth=2;fillColor=#A9C4EB;" vertex="1" parent="1">
          <mxGeometry x="163" y="129" width="10" height="10" as="geometry" />
        </mxCell>
        <mxCell id="B35P_RnnMUQNIVXsbhu0-20" value="" style="triangle;whiteSpace=wrap;html=1;strokeColor=#A9C4EB;strokeWidth=2;fillColor=none;rotation=-90;" vertex="1" parent="1">
          <mxGeometry x="432" y="79" width="10" height="10" as="geometry" />
        </mxCell>
      </root>
    </mxGraphModel>
  </diagram>
</mxfile>
